<?xml version="1.0" encoding="UTF-8"?>
<svg id="Layer_2" data-name="Layer 2" xmlns="http://www.w3.org/2000/svg" viewBox="0 0 91.29 76.52">
  <defs>
    <style>
      .cls-1, .cls-2 {
        fill: none;
      }

      .cls-2 {
        stroke: #fff;
        stroke-miterlimit: 10;
        stroke-width: 4px;
      }
    </style>
  </defs>
  <g id="Layer_1-2" data-name="Layer 1">
    <g>
      <path class="cls-2" d="M22.47,61.57c-1.38,0-2.56-.49-3.54-1.47-.98-.98-1.47-2.16-1.47-3.54s.49-2.56,1.47-3.54,2.16-1.47,3.54-1.47h.4v-19.59c0-5.1,1.47-9.69,4.42-13.78,2.95-4.09,6.86-6.74,11.75-7.96v-1.59c0-1.86.64-3.42,1.91-4.7,1.27-1.27,2.84-1.91,4.7-1.91s3.42.64,4.7,1.91c1.27,1.27,1.91,2.84,1.91,4.7v1.59c4.94,1.22,8.87,3.86,11.79,7.92,2.92,4.06,4.38,8.67,4.38,13.82v19.59h.4c1.38,0,2.56.49,3.54,1.47s1.47,2.16,1.47,3.54-.49,2.56-1.47,3.54c-.98.98-2.16,1.47-3.54,1.47H22.47ZM45.73,72c-2.02,0-3.74-.7-5.18-2.11-1.43-1.41-2.15-3.12-2.15-5.14h14.57c0,2.02-.7,3.73-2.11,5.14-1.41,1.41-3.12,2.11-5.14,2.11Z"/>
      <rect class="cls-1" y="2" width="91.29" height="74.52"/>
    </g>
  </g>
</svg>