<?xml version="1.0" encoding="UTF-8"?>
<svg id="Layer_2" data-name="Layer 2" xmlns="http://www.w3.org/2000/svg" viewBox="0 0 88.26 78.41">
  <defs>
    <style>
      .cls-1 {
        fill: #fff;
      }
    </style>
  </defs>
  <g id="Layer_1-2" data-name="Layer 1">
    <path class="cls-1" d="M43.98,78.41c-1.56,0-3.08-.29-4.57-.86-1.49-.58-2.84-1.44-4.06-2.59l-7.21-6.6c-7.04-6.36-13.49-12.9-19.35-19.6C2.93,42.05,0,34.43,0,25.9c0-7.38,2.44-13.54,7.31-18.48C12.19,2.47,18.32,0,25.7,0c3.45,0,6.74.61,9.85,1.83s5.92,3.01,8.43,5.38c2.51-2.37,5.32-4.16,8.43-5.38s6.4-1.83,9.85-1.83c7.38,0,13.56,2.47,18.54,7.41,4.98,4.94,7.46,11.1,7.46,18.48,0,8.53-2.96,16.17-8.89,22.9-5.92,6.74-12.48,13.32-19.65,19.75l-7.01,6.5c-1.22,1.15-2.59,2-4.11,2.54-1.52.54-3.06.81-4.62.81Z"/>
  </g>
</svg>