<?xml version="1.0" encoding="UTF-8"?>
<svg id="Layer_2" data-name="Layer 2" xmlns="http://www.w3.org/2000/svg" viewBox="0 0 65 55.56">
  <defs>
    <style>
      .cls-1 {
        fill: #ff59e1;
      }
    </style>
  </defs>
  <g id="Layer_1-2" data-name="Layer 1">
    <path class="cls-1" d="M26.81,53.33l-8.06-6.94c-7.78-6.67-12.85-11.9-15.21-15.69-2.36-3.8-3.54-7.87-3.54-12.22,0-5.56,1.76-10.02,5.28-13.4C8.8,1.69,13.38,0,19.03,0c2.69,0,5.21.6,7.57,1.81,2.36,1.2,4.33,2.87,5.9,5,1.57-2.13,3.56-3.8,5.97-5,2.41-1.2,4.95-1.81,7.64-1.81,5.65,0,10.21,1.69,13.68,5.07,3.47,3.38,5.21,7.85,5.21,13.4,0,4.35-1.18,8.43-3.54,12.22-2.36,3.8-7.43,9.03-15.21,15.69l-8.06,6.94c-1.67,1.48-3.56,2.22-5.69,2.22s-4.03-.74-5.69-2.22Z"/>
  </g>
</svg>