<?xml version="1.0" encoding="UTF-8"?>
<svg id="Layer_2" data-name="Layer 2" xmlns="http://www.w3.org/2000/svg" viewBox="0 0 52.63 49.54">
  <defs>
    <style>
      .cls-1 {
        fill: #ff59e1;
      }
    </style>
  </defs>
  <g id="Layer_1-2" data-name="Layer 1">
    <path class="cls-1" d="M15.66,49.54c-1.34,0-2.48-.48-3.43-1.43s-1.43-2.1-1.43-3.43.48-2.48,1.43-3.43,2.1-1.43,3.43-1.43h17.75c2.62,0,4.86-.91,6.71-2.74,1.85-1.83,2.78-4.05,2.78-6.67s-.93-4.86-2.78-6.71-4.09-2.78-6.71-2.78h-16.9l3.01,3.01c.93.93,1.39,2.06,1.39,3.4s-.46,2.47-1.39,3.4-2.06,1.39-3.4,1.39-2.47-.46-3.4-1.39L1.47,19.52c-.46-.46-.82-1-1.08-1.62s-.39-1.23-.39-1.85.13-1.23.39-1.85.62-1.16,1.08-1.62L12.73,1.39c.93-.93,2.06-1.39,3.4-1.39s2.47.46,3.4,1.39,1.39,2.06,1.39,3.4-.46,2.47-1.39,3.4l-3.01,3.01h16.9c5.3,0,9.83,1.86,13.58,5.59s5.63,8.24,5.63,13.54-1.88,9.83-5.63,13.58c-3.76,3.76-8.28,5.63-13.58,5.63H15.66Z"/>
  </g>
</svg>