<?xml version="1.0" encoding="UTF-8"?>
<svg id="Layer_2" data-name="Layer 2" xmlns="http://www.w3.org/2000/svg" viewBox="0 0 60 60">
  <defs>
    <style>
      .cls-1 {
        fill: #ff59e1;
        stroke: #fff;
        stroke-linecap: round;
        stroke-linejoin: round;
        stroke-width: 4px;
      }

      .cls-2 {
        fill: #fff;
      }
    </style>
  </defs>
  <g id="Layer_1-2" data-name="Layer 1">
    <g>
      <circle class="cls-1" cx="30" cy="30" r="28"/>
      <g>
        <path class="cls-2" d="M28.74,39.6c-1.08-.15-2.11-.44-3.07-.89s-1.83-1.03-2.62-1.77c-.91-.94-1.61-2-2.09-3.18-.48-1.18-.72-2.41-.72-3.69,0-.39.02-.8.06-1.22.04-.42.12-.82.24-1.22.2-.72.15-1.44-.15-2.17-.3-.72-.8-1.21-1.5-1.45-.77-.25-1.51-.21-2.23.12-.71.32-1.19.88-1.44,1.66-.2.71-.34,1.41-.44,2.12-.1.71-.15,1.4-.15,2.09,0,2.05.39,4.02,1.18,5.89.79,1.87,1.9,3.53,3.32,4.97,1.28,1.28,2.72,2.29,4.32,3.03,1.6.74,3.29,1.18,5.06,1.33l-.37.44c-.54.54-.8,1.19-.78,1.96s.31,1.42.86,1.96c.55.54,1.19.81,1.92.81s1.37-.27,1.91-.81l3.99-3.91c.94-.95,1.4-2.07,1.4-3.34s-.47-2.37-1.4-3.31l-3.91-3.91c-.56-.54-1.22-.81-1.97-.81s-1.4.27-1.94.81-.81,1.21-.81,1.99.27,1.45.81,1.99l.52.52Z"/>
        <path class="cls-2" d="M31.26,20.4c1.08.15,2.11.44,3.07.89s1.83,1.03,2.62,1.77c.91.94,1.61,2,2.09,3.18.48,1.18.72,2.41.72,3.69,0,.39-.02.81-.07,1.26s-.12.86-.22,1.26c-.2.74-.17,1.46.07,2.18s.71,1.24,1.39,1.59c.75.34,1.47.36,2.19.05.71-.31,1.19-.85,1.44-1.6.27-.74.47-1.49.61-2.25s.2-1.56.2-2.38c0-2.06-.39-4.03-1.18-5.91-.79-1.88-1.9-3.54-3.32-4.96-1.28-1.28-2.72-2.29-4.32-3.03-1.6-.74-3.29-1.18-5.06-1.33l.37-.44c.54-.54.8-1.19.78-1.96s-.31-1.42-.86-1.96c-.55-.54-1.19-.81-1.92-.81s-1.37.27-1.91.81l-3.99,3.91c-.94.95-1.4,2.07-1.4,3.34s.47,2.37,1.4,3.31l3.91,3.91c.56.54,1.22.81,1.97.81s1.4-.27,1.94-.81.81-1.21.81-1.99-.27-1.45-.81-1.99l-.52-.52Z"/>
      </g>
    </g>
  </g>
</svg>