<?xml version="1.0" encoding="UTF-8"?>
<svg id="Layer_2" data-name="Layer 2" xmlns="http://www.w3.org/2000/svg" viewBox="0 0 72 60.84">
  <defs>
    <style>
      .cls-1 {
        fill: #eae2f2;
      }
    </style>
  </defs>
  <g id="Layer_1-2" data-name="Layer 1">
    <path class="cls-1" d="M70.95,12.18c-.69-.71-1.59-1.07-2.68-1.07h-14.04L45.79,0h-19.55l-8.45,11.11H3.72c-1.08,0-1.98.36-2.68,1.07-.69.72-1.04,1.6-1.04,2.65v42.28c0,1.08.35,1.98,1.04,2.68.7.69,1.59,1.05,2.68,1.05h64.56c1.09,0,1.98-.36,2.68-1.05s1.05-1.59,1.05-2.68V14.83c0-1.05-.35-1.93-1.05-2.65ZM46.53,46.39c-2.76,2.81-6.26,4.21-10.53,4.21s-7.76-1.4-10.5-4.21c-2.73-2.82-4.1-6.27-4.1-10.39s1.37-7.48,4.1-10.35c2.74-2.87,6.24-4.3,10.5-4.3s7.77,1.43,10.53,4.3c2.76,2.88,4.12,6.31,4.12,10.3s-1.37,7.62-4.12,10.44Z"/>
  </g>
</svg>