<?xml version="1.0" encoding="UTF-8"?>
<svg id="Layer_2" data-name="Layer 2" xmlns="http://www.w3.org/2000/svg" viewBox="0 0 82.64 82.74">
  <defs>
    <style>
      .cls-1 {
        fill: #ff59e1;
      }
    </style>
  </defs>
  <g id="Layer_1-2" data-name="Layer 1">
    <path class="cls-1" d="M41.42,59.11l-20.04,19.91c-2.42,2.41-5.35,3.65-8.78,3.72-3.43.07-6.42-1.17-8.98-3.72-2.41-2.41-3.62-5.36-3.62-8.85s1.21-6.43,3.62-8.85l19.91-20.11L3.62,21.38C1.21,18.96,0,16,0,12.5S1.21,6.04,3.62,3.62C6.03,1.21,8.98,0,12.47,0s6.43,1.21,8.85,3.62l20.11,19.91L61.26,3.62c2.42-2.41,5.38-3.62,8.88-3.62s6.46,1.21,8.88,3.62c2.41,2.41,3.62,5.36,3.62,8.85s-1.21,6.43-3.62,8.85l-19.91,19.91,19.91,20.04c2.41,2.42,3.62,5.38,3.62,8.88s-1.21,6.46-3.62,8.88c-2.41,2.41-5.36,3.62-8.85,3.62s-6.43-1.21-8.85-3.62l-19.91-19.91Z"/>
  </g>
</svg>