<?xml version="1.0" encoding="UTF-8"?>
<svg id="Layer_2" data-name="Layer 2" xmlns="http://www.w3.org/2000/svg" viewBox="0 0 75.82 75">
  <defs>
    <style>
      .cls-1 {
        fill: #e0ff40;
      }

      .cls-2 {
        fill: #eae2f2;
      }
    </style>
  </defs>
  <g id="Layer_1-2" data-name="Layer 1">
    <g>
      <path class="cls-2" d="M72.87,34.25c-.85-.62-1.76-1.13-2.72-1.53-1.64-.68-3.39-1.02-5.19-1.02-1.63,0-3.27.3-4.86.88-1.76.65-3.35,1.68-4.73,3.09l-2.61,2.61c.53-1.65.82-3.41.82-5.24,0-9.46-7.66-17.13-17.12-17.13s-17.13,7.66-17.13,17.13,7.66,17.12,17.13,17.12c1.82,0,3.58-.29,5.22-.81l-2.3,2.3c-.96-.11-1.93-.16-2.92-.16-9.81,0-18.33,5.49-22.64,13.56C5.02,58.09,0,47.7,0,36.47,0,16.37,16.36,0,36.47,0s35.25,15.17,36.4,34.25Z"/>
      <path class="cls-1" d="M75.26,46.01c-.37-.9-.89-1.74-1.56-2.48l-3.44-3.43c-.74-.75-1.55-1.3-2.46-1.67-.89-.37-1.85-.55-2.84-.55-.9,0-1.82.16-2.72.5-.9.33-1.74.87-2.48,1.63l-19.3,19.3c-.57.55-1,1.18-1.3,1.86-.31.68-.46,1.42-.46,2.23v5.75c0,1.61.58,2.99,1.72,4.13,1.14,1.15,2.53,1.72,4.13,1.72h5.75c.81,0,1.55-.13,2.24-.41.69-.29,1.3-.7,1.85-1.25l19.32-19.32c.74-.74,1.28-1.56,1.62-2.46.34-.9.5-1.85.5-2.84,0-.9-.18-1.82-.56-2.72ZM49.64,67.57h-3.52v-3.52l10.95-10.86,3.43,3.43-10.86,10.95Z"/>
    </g>
  </g>
</svg>