<?xml version="1.0" encoding="UTF-8"?>
<svg id="Layer_2" data-name="Layer 2" xmlns="http://www.w3.org/2000/svg" viewBox="0 0 65 62.99">
  <defs>
    <style>
      .cls-1 {
        fill: #ff59e1;
      }

      .cls-2 {
        fill: #e0ff40;
      }

      .cls-3 {
        fill: #eae2f2;
      }
    </style>
  </defs>
  <g id="Layer_1-2" data-name="Layer 1">
    <g>
      <path class="cls-2" d="M.58,23.31L11.38,4c.43-.81.99-1.39,1.68-1.75s1.44-.54,2.25-.54,1.56.18,2.25.54,1.25.94,1.68,1.75l10.72,19.3c.43.76.62,1.54.57,2.32s-.26,1.51-.64,2.18-.91,1.2-1.57,1.61-1.43.61-2.29.61H4.51c-.86,0-1.62-.2-2.29-.61-.67-.41-1.19-.94-1.57-1.61S.05,26.42,0,25.63s.14-1.56.57-2.32Z"/>
      <path class="cls-3" d="M15.38,62.99c-3.86,0-7.14-1.33-9.83-4-2.69-2.67-4.04-5.93-4.04-9.8s1.35-7.14,4.04-9.83c2.69-2.69,5.97-4.04,9.83-4.04s7.13,1.35,9.8,4.04c2.67,2.69,4,5.97,4,9.83s-1.33,7.13-4,9.8c-2.67,2.67-5.93,4-9.8,4Z"/>
      <path class="cls-2" d="M34.4,58.49v-18.66c0-1.24.44-2.3,1.32-3.18.88-.88,1.94-1.32,3.18-1.32h18.66c1.24,0,2.3.44,3.18,1.32s1.32,1.94,1.32,3.18v18.66c0,1.24-.44,2.3-1.32,3.18-.88.88-1.94,1.32-3.18,1.32h-18.66c-1.24,0-2.3-.44-3.18-1.32-.88-.88-1.32-1.94-1.32-3.18Z"/>
      <path class="cls-1" d="M45.34,27.46l-4.15-3.57c-4-3.43-6.61-6.13-7.83-8.08s-1.82-4.05-1.82-6.29c0-2.86.91-5.16,2.72-6.9,1.81-1.74,4.17-2.61,7.08-2.61,1.38,0,2.68.31,3.9.93s2.23,1.48,3.04,2.57c.81-1.1,1.84-1.95,3.07-2.57s2.55-.93,3.93-.93c2.91,0,5.26.87,7.04,2.61,1.79,1.74,2.68,4.04,2.68,6.9,0,2.24-.61,4.34-1.82,6.29-1.22,1.95-3.83,4.65-7.83,8.08l-4.15,3.57c-.86.76-1.84,1.14-2.93,1.14s-2.07-.38-2.93-1.14Z"/>
    </g>
  </g>
</svg>