<svg width="51" height="45" viewBox="0 0 51 45" fill="none" xmlns="http://www.w3.org/2000/svg">
<path d="M21.3 40.92L15.5 35.92C9.9 31.12 6.25 27.35 4.55 24.62C2.85 21.89 2 18.95 2 15.82C2 11.82 3.27 8.60002 5.8 6.17002C8.33 3.74002 11.63 2.52002 15.7 2.52002C17.63 2.52002 19.45 2.95002 21.15 3.82002C22.85 4.69002 24.27 5.89002 25.4 7.42002C26.53 5.89002 27.97 4.69002 29.7 3.82002C31.43 2.95002 33.27 2.52002 35.2 2.52002C39.27 2.52002 42.55 3.74002 45.05 6.17002C47.55 8.60002 48.8 11.82 48.8 15.82C48.8 18.95 47.95 21.89 46.25 24.62C44.55 27.35 40.9 31.12 35.3 35.92L29.5 40.92C28.3 41.99 26.93 42.52 25.4 42.52C23.87 42.52 22.5 41.99 21.3 40.92Z" fill="#6B2E99" stroke="#FF59E1" stroke-width="4" stroke-linecap="round" stroke-linejoin="round"/>
</svg>
